<svg width="64" height="64" viewBox="0 0 64 64" fill="none" xmlns="http://www.w3.org/2000/svg">
<path fill-rule="evenodd" clip-rule="evenodd" d="M5 16C5 13.7909 6.79086 12 9 12H55.1166C57.3257 12 59.1166 13.7909 59.1166 16V42.0014C59.1166 44.2106 57.3257 46.0014 55.1166 46.0014H45.0033C44.3678 46.0014 43.7701 46.3034 43.3932 46.815L36.907 55.6176C34.6165 58.7262 29.6868 57.1061 29.6868 53.2449V48.0014C29.6868 46.8968 28.7914 46.0014 27.6868 46.0014H9C6.79086 46.0014 5 44.2106 5 42.0014V16ZM9 14C7.89543 14 7 14.8954 7 16V42.0014C7 43.106 7.89543 44.0014 9 44.0014H27.6868C29.8959 44.0014 31.6868 45.7923 31.6868 48.0014V53.2449C31.6868 55.1755 34.1517 55.9855 35.2969 54.4313L41.7831 45.6286C42.537 44.6054 43.7323 44.0014 45.0033 44.0014H55.1166C56.2212 44.0014 57.1166 43.106 57.1166 42.0014V16C57.1166 14.8954 56.2212 14 55.1166 14H9Z" fill="black"/>
<path fill-rule="evenodd" clip-rule="evenodd" d="M29.9027 17.9268C30.4317 18.0855 30.7319 18.643 30.5732 19.172L24.804 38.4028C24.6453 38.9318 24.0878 39.2319 23.5588 39.0732C23.0298 38.9145 22.7296 38.3571 22.8883 37.8281L28.6576 18.5973C28.8163 18.0683 29.3737 17.7681 29.9027 17.9268Z" fill="black"/>
<path fill-rule="evenodd" clip-rule="evenodd" d="M41.4412 17.9268C41.9702 18.0855 42.2704 18.643 42.1117 19.172L36.3424 38.4028C36.1837 38.9318 35.6263 39.2319 35.0973 39.0732C34.5683 38.9145 34.2681 38.3571 34.4268 37.8281L40.196 18.5973C40.3547 18.0683 40.9122 17.7681 41.4412 17.9268Z" fill="black"/>
<path fill-rule="evenodd" clip-rule="evenodd" d="M19 24.6539C19 24.1016 19.4477 23.6539 20 23.6539H45C45.5523 23.6539 46 24.1016 46 24.6539C46 25.2062 45.5523 25.6539 45 25.6539H20C19.4477 25.6539 19 25.2062 19 24.6539Z" fill="black"/>
<path fill-rule="evenodd" clip-rule="evenodd" d="M19 33.3077C19 32.7554 19.4477 32.3077 20 32.3077H45C45.5523 32.3077 46 32.7554 46 33.3077C46 33.86 45.5523 34.3077 45 34.3077H20C19.4477 34.3077 19 33.86 19 33.3077Z" fill="black"/>
</svg>
