<svg width="512" height="512" viewBox="0 0 512 512" fill="none" xmlns="http://www.w3.org/2000/svg">
<path fill-rule="evenodd" clip-rule="evenodd" d="M335 107H177C138.34 107 107 138.34 107 177V335C107 373.66 138.34 405 177 405H335C373.66 405 405 373.66 405 335V177C405 138.34 373.66 107 335 107ZM177 87C127.294 87 87 127.294 87 177V335C87 384.706 127.294 425 177 425H335C384.706 425 425 384.706 425 335V177C425 127.294 384.706 87 335 87H177Z" fill="black"/>
<path fill-rule="evenodd" clip-rule="evenodd" d="M256 310C285.823 310 310 285.823 310 256C310 226.177 285.823 202 256 202C226.177 202 202 226.177 202 256C202 285.823 226.177 310 256 310ZM256 327C295.212 327 327 295.212 327 256C327 216.788 295.212 185 256 185C216.788 185 185 216.788 185 256C185 295.212 216.788 327 256 327Z" fill="black"/>
<path fill-rule="evenodd" clip-rule="evenodd" d="M333 185C346.807 185 358 173.807 358 160C358 146.193 346.807 135 333 135C319.193 135 308 146.193 308 160C308 173.807 319.193 185 333 185Z" fill="black"/>
</svg>
